<svg xmlns="http://www.w3.org/2000/svg" xmlns:svg="http://www.w3.org/2000/svg" style="fill:#34495e" id="svg2" width="96" height="96" x="0" y="0" version="1.1" viewBox="0 0 48 48"><metadata id="metadata31"/><path style="fill:#a41e11;stroke-width:.48622569" id="path26" d="m 21.96977,17.079703 c -1.131002,0.99525 -6.99009,5.062278 -8.237457,6.160377 -1.247366,1.09768 -1.940321,1.086952 -2.925682,0.291718 C 9.8211459,22.736986 3.5861795,18.484664 2.4630257,17.57859 1.9016356,17.125553 1.6064886,16.743605 1.6064886,16.38269 v -3.616934 c 0,0 8.1172304,-2.9830202 9.4277634,-3.7765703 1.310409,-0.7937605 1.765028,-0.8223652 2.880208,-0.1327135 1.115304,0.6896501 7.783461,2.7203248 8.885685,3.4019828 0,0 -5.35e-4,3.229939 -5.35e-4,3.565406 1.25e-4,0.357129 -0.254158,0.749382 -0.829877,1.255842 z"/><path style="fill:#d82c20;stroke-width:.48622569" id="path28" d="m 21.96977,13.462137 c -1.131002,0.995251 -6.99009,5.062278 -8.237457,6.160167 -1.247366,1.097679 -1.940321,1.086952 -2.925682,0.291931 C 9.8212712,19.11921 3.5861795,14.867098 2.4630257,13.961024 1.3398719,13.05495 1.316325,12.430922 2.4196696,11.701519 3.5228892,10.972116 9.723719,6.8653375 11.034378,6.0715767 c 1.310407,-0.7937609 1.765026,-0.8223652 2.880206,-0.1325044 1.115304,0.6896514 6.939384,4.6029317 8.041482,5.2845907 1.102349,0.681448 1.144707,1.243432 0.0137,2.238475 z"/><polygon style="fill:#fff" id="polygon30" points="259.06 240.78 270.27 237.11 267.24 244.38 278.67 248.66 263.93 250.19 260.63 258.13 255.3 249.27 238.28 247.74 250.98 243.16 247.17 236.13" transform="matrix(0.12458722,0,0,0.21032358,-19.738293,-42.319881)"/><polygon style="fill:#fff" id="polygon32" points="271.66 269.72 259.75 287.18 232.24 275.77" transform="matrix(0.12458722,0,0,0.21032358,-19.738293,-42.319881)"/><ellipse style="fill:#fff;stroke-width:.48622569" id="ellipse34" cx="7.871" cy="12.625" rx="2.625" ry="1.718"/><polygon style="fill:#7a0c00" id="polygon36" points="296.11 269.26 296.09 250.83 319.42 260.05" transform="matrix(0.12458722,0,0,0.21032358,-19.738293,-42.319881)"/><polygon style="fill:#ad2115" id="polygon38" points="296.09 250.83 296.11 269.26 293.58 270.25 270.28 261.04" transform="matrix(0.12458722,0,0,0.21032358,-19.738293,-42.319881)"/><path style="fill:#a41e11;stroke-width:.48622569" id="path26-3" d="m 44.240957,38.712966 c -1.131002,0.99525 -6.99009,5.062277 -8.237456,6.160376 -1.247366,1.097681 -1.940322,1.086952 -2.925683,0.291718 -0.985485,-0.794812 -7.220451,-5.047133 -8.343605,-5.953207 -0.56139,-0.453037 -0.856537,-0.834985 -0.856537,-1.1959 v -3.616934 c 0,0 8.11723,-2.98302 9.427763,-3.77657 1.31041,-0.793761 1.765029,-0.822365 2.880209,-0.132714 1.115304,0.68965 7.78346,2.720325 8.885684,3.401983 0,0 -5.5e-4,3.229939 -5.5e-4,3.565405 1.25e-4,0.35713 -0.254158,0.749383 -0.829877,1.255842 z"/><path style="fill:#d82c20;stroke-width:.48622569" id="path28-6" d="m 44.240957,35.0954 c -1.131002,0.995251 -6.99009,5.062278 -8.237456,6.160167 -1.247366,1.097679 -1.940322,1.086952 -2.925683,0.291931 -0.985359,-0.795025 -7.220451,-5.047137 -8.343605,-5.953211 -1.123154,-0.906074 -1.146701,-1.530102 -0.04336,-2.259505 1.10322,-0.729403 7.304049,-4.836181 8.614708,-5.629942 1.310408,-0.793761 1.765027,-0.822365 2.880207,-0.132505 1.115304,0.689652 6.939383,4.602932 8.041481,5.284591 1.102349,0.681448 1.144707,1.243432 0.0137,2.238475 z"/><g id="g6" transform="matrix(0.32868898,-0.35652065,0.38988722,0.3594508,8.0159743,27.243837)" style="fill:#d82c20;fill-opacity:1"><polygon id="polygon8" points="24 23.4 17 15 31 15" transform="translate(0.25565321,7.6094237)" style="fill:#d82c20;fill-opacity:1"/><rect id="rect10" width="4" height="14" x="22.256" y="11.609" style="fill:#d82c20;fill-opacity:1"/><path id="path12" d="m 41.762256,24.149311 -0.355947,1.230358 -3.943883,-0.920398 0.503987,-1.236377 c 1.189273,-3.15562 1.797213,-5.004166 1.547693,-5.939705 -0.249519,-0.935539 -1.451326,-2.034999 -3.572161,-3.97522 l 3.093847,-2.82778 c 5.443475,4.979903 5.628952,5.7154 2.726464,13.669122 z" style="fill:#d82c20;fill-opacity:1"/><polygon id="polygon14" points="38.4 31 29.4 35 28 25" transform="matrix(-0.70694481,-0.64674062,-0.77346161,0.70694483,84.837135,25.504826)" style="fill:#d82c20;fill-opacity:1"/><path id="path16" d="m 7.6963034,19.439334 0.371118,1.275091 4.0226266,-0.56798 -0.371118,-1.275089 c -0.850602,-3.245859 -1.260565,-5.139435 -0.913452,-6.048581 0.200399,-0.928204 1.512655,-1.916448 3.828402,-3.6604076 L 11.85299,6.0747064 C 5.9092417,10.550868 5.6469898,11.266558 7.6963034,19.439334 Z" style="fill:#d82c20;fill-opacity:1"/><polygon id="polygon18" points="9.6 31 20 25 18.6 35" transform="matrix(-0.77191549,0.58131977,0.69522234,0.7719155,1.7314288,-10.916967)" style="fill:#d82c20;fill-opacity:1"/></g></svg>