<svg xmlns="http://www.w3.org/2000/svg" xmlns:svg="http://www.w3.org/2000/svg" id="Слой_1" width="96" height="96" x="0" y="0" enable-background="new 0 0 48 48" version="1.1" viewBox="0 0 48 48" xml:space="preserve" style="fill:#34495e"><metadata id="metadata31"/><defs id="defs29"><filter style="color-interpolation-filters:sRGB" id="filter3689"><feColorMatrix id="feColorMatrix3691" values="1 0 0 0 0 0 1 0 0 0 0 0 1 0 0 0 0 0 1 0"/></filter><filter style="color-interpolation-filters:sRGB" id="filter3693"><feColorMatrix id="feColorMatrix3695" values="1 0 0 0 0 0 1 0 0 0 0 0 1 0 0 0 0 0 1 0"/></filter><filter style="color-interpolation-filters:sRGB" id="filter3697"><feColorMatrix id="feColorMatrix3699" values="1 0 0 0 0 0 1 0 0 0 0 0 1 0 0 0 0 0 1 0"/></filter></defs><g id="g3" style="filter:url(#filter3689);fill:#d82c20;fill-opacity:1"><path id="path5" fill="#455A64" d="M42,35c0,2.209-1.791,3-4,3H10c-2.209,0-4-0.791-4-3l3-12c0.219-2.094,1.791-4,4-4h22 c2.209,0,3.688,1.75,4,4L42,35z" style="fill:#d82c20;fill-opacity:1"/><path id="path7" fill="#455A64" d="M42,27c0,2.209-1.791,3-4,3H10c-2.209,0-4-0.791-4-3l3-12c0.219-2.094,1.791-4,4-4h22 c2.209,0,3.688,1.75,4,4L42,27z" style="fill:#d82c20;fill-opacity:1"/><path id="path9" fill="#455A64" d="M42,19c0,2.209-1.791,3-4,3H10c-2.209,0-4-0.791-4-3L9,7c0.61-1.662,1.791-3,4-3h22 c2.209,0,3.201,1.087,4,3L42,19z" style="fill:#d82c20;fill-opacity:1"/></g><g id="g11" style="filter:url(#filter3693);fill:#a41e11;fill-opacity:1"><path id="path13" fill="#78909C" d="M38,22H10c-2.209,0-4-0.791-4-3v6c0,2.209,1.791,3,4,3h28c2.209,0,4-0.791,4-3v-6 C42,21.209,40.209,22,38,22z" style="fill:#a41e11;fill-opacity:1"/><path id="path15" fill="#78909C" d="M38,30H10c-2.209,0-4-0.791-4-3v6c0,2.209,1.791,3,4,3h28c2.209,0,4-0.791,4-3v-6 C42,29.209,40.209,30,38,30z" style="fill:#a41e11;fill-opacity:1"/><path id="path17" fill="#78909C" d="M38,38H10c-2.209,0-4-0.791-4-3v6c0,2.209,1.791,3,4,3h28c2.209,0,4-0.791,4-3v-6 C42,37.209,40.209,38,38,38z" style="fill:#a41e11;fill-opacity:1"/></g></svg>